solid Untitled-55b82c3e
facet normal 1.2222175206863047e-16 0.8660254037844388 0.4999999999999998
  outer loop
    vertex 0.0 4.717245036914925 6.95
    vertex 13.421203824874622 4.107852459636684 8.421203824874622
    vertex 11.950000000000001 4.717245036914924 6.949999999999998
  endloop
endfacet
facet normal 6.122123662521569e-17 0.9803428392262994 0.19730159040848635
  outer loop
    vertex 13.421203824874622 4.107852459636684 8.421203824874622
    vertex 0.0 4.717245036914925 6.95
    vertex 0.0 4.1078524596366846 8.421203824874622
  endloop
endfacet
facet normal -1.5803357287385067e-16 -0.7409240719506589 -0.6715888024707193
  outer loop
    vertex 10.686648634762056 14.31335136523794 14.313351365237935
    vertex 0.0 13.05 15.28275496308507
    vertex 0.0 14.31335136523794 14.313351365237935
  endloop
endfacet
facet normal -1.007743893672657e-16 -0.5000000000000007 -0.8660254037844383
  outer loop
    vertex 0.0 13.05 15.28275496308507
    vertex 10.686648634762056 14.31335136523794 14.313351365237935
    vertex 9.717245036914921 13.049999999999999 15.28275496308507
  endloop
endfacet
facet normal 8.018847604418355e-17 0.27741641724094857 -0.9607497756675231
  outer loop
    vertex 9.107852459636684 8.421203824874624 15.892147540363313
    vertex 0.0 6.950000000000005 15.282754963085077
    vertex 0.0 8.421203824874627 15.892147540363313
  endloop
endfacet
facet normal 1.1093285960019944e-16 0.4999999999999989 -0.8660254037844394
  outer loop
    vertex 0.0 6.950000000000005 15.282754963085077
    vertex 9.107852459636684 8.421203824874624 15.892147540363313
    vertex 9.717245036914923 6.950000000000001 15.282754963085077
  endloop
endfacet
facet normal 5.786867685626339e-17 1.0 -1.3366664843470358e-16
  outer loop
    vertex 0.0 3.9000000000000012 9.999999999999998
    vertex 13.421203824874622 4.107852459636684 8.421203824874622
    vertex 0.0 4.1078524596366846 8.421203824874622
  endloop
endfacet
facet normal 6.122123662521569e-17 0.9803428392262994 0.19730159040848635
  outer loop
    vertex 13.421203824874622 4.107852459636684 8.421203824874622
    vertex 0.0 3.9000000000000012 9.999999999999998
    vertex 14.999999999999995 3.900000000000001 9.999999999999998
  endloop
endfacet
facet normal 1.9000973315228392e-16 0.2774164172409491 0.9607497756675231
  outer loop
    vertex 9.107852459636684 8.421203824874622 4.107852459636683
    vertex 0.0 10.0 3.9
    vertex 0.0 8.421203824874622 4.107852459636684
  endloop
endfacet
facet normal 1.3135248087549492e-16 6.237776926952833e-17 1.0
  outer loop
    vertex 0.0 10.0 3.9
    vertex 9.107852459636684 8.421203824874622 4.107852459636683
    vertex 8.899999999999999 9.999999999999998 3.8999999999999986
  endloop
endfacet
facet normal 6.615700038378557e-17 0.9659258262890682 -0.25881904510252113
  outer loop
    vertex 0.0 4.107852459636686 11.57879617512538
    vertex 11.950000000000001 4.717245036914925 13.049999999999999
    vertex 13.421203824874622 4.1078524596366846 11.57879617512538
  endloop
endfacet
facet normal 5.307526852020989e-17 0.8935121718738368 -0.4490389723768963
  outer loop
    vertex 11.950000000000001 4.717245036914925 13.049999999999999
    vertex 0.0 4.107852459636686 11.57879617512538
    vertex 0.0 4.717245036914927 13.05
  endloop
endfacet
facet normal -5.635349362771763e-17 0.5309563806349316 -0.8473991514410748
  outer loop
    vertex 20.282754963085075 6.950000000000001 15.282754963085077
    vertex 35.0 5.6866486347620615 14.31335136523794
    vertex 19.313351365237935 5.6866486347620615 14.31335136523794
  endloop
endfacet
facet normal -1.9539901358545447e-17 0.7071067811865476 -0.7071067811865475
  outer loop
    vertex 35.0 5.6866486347620615 14.31335136523794
    vertex 20.282754963085075 6.950000000000001 15.282754963085077
    vertex 35.0 6.950000000000005 15.282754963085077
  endloop
endfacet
facet normal -9.584004249089481e-17 -0.530956380634933 -0.847399151441074
  outer loop
    vertex 9.717245036914921 13.049999999999999 15.28275496308507
    vertex 0.0 11.57879617512538 15.892147540363313
    vertex 0.0 13.05 15.28275496308507
  endloop
endfacet
facet normal -7.49322197545448e-17 -0.25881904510252207 -0.9659258262890681
  outer loop
    vertex 0.0 11.57879617512538 15.892147540363313
    vertex 9.717245036914921 13.049999999999999 15.28275496308507
    vertex 9.10785245963668 11.578796175125378 15.892147540363313
  endloop
endfacet
facet normal -1.635432424263527e-19 1.8108190614717292e-16 -1.0
  outer loop
    vertex 8.899999999999999 10.0 16.099999999999998
    vertex 0.0 8.421203824874627 15.892147540363313
    vertex 0.0 10.000000000000002 16.099999999999998
  endloop
endfacet
facet normal 7.391294617726381e-17 0.2588190451025204 -0.9659258262890685
  outer loop
    vertex 0.0 8.421203824874627 15.892147540363313
    vertex 8.899999999999999 10.0 16.099999999999998
    vertex 9.107852459636684 8.421203824874624 15.892147540363313
  endloop
endfacet
facet normal 1.6447475796774467e-16 0.7409240719506589 0.6715888024707195
  outer loop
    vertex 10.68664863476206 5.68664863476206 5.686648634762058
    vertex 0.0 6.95 4.717245036914925
    vertex 0.0 5.686648634762061 5.68664863476206
  endloop
endfacet
facet normal 2.0394628699244748e-16 0.49999999999999994 0.8660254037844387
  outer loop
    vertex 0.0 6.95 4.717245036914925
    vertex 10.68664863476206 5.68664863476206 5.686648634762058
    vertex 9.717245036914923 6.949999999999998 4.717245036914922
  endloop
endfacet
facet normal 6.615700038378557e-17 0.9659258262890682 -0.25881904510252113
  outer loop
    vertex 0.0 4.107852459636686 11.57879617512538
    vertex 14.999999999999995 3.900000000000001 9.999999999999998
    vertex 0.0 3.9000000000000012 9.999999999999998
  endloop
endfacet
facet normal 5.786867685626338e-17 1.0 -2.392911084545687e-16
  outer loop
    vertex 14.999999999999995 3.900000000000001 9.999999999999998
    vertex 0.0 4.107852459636686 11.57879617512538
    vertex 13.421203824874622 4.1078524596366846 11.57879617512538
  endloop
endfacet
facet normal -1.0234331290997969e-16 0.5 0.8660254037844387
  outer loop
    vertex 35.0 6.95 4.717245036914925
    vertex 20.892147540363318 8.421203824874622 4.107852459636683
    vertex 20.282754963085075 6.95 4.717245036914922
  endloop
endfacet
facet normal -1.0830126549274628e-16 0.277416417240949 0.9607497756675231
  outer loop
    vertex 20.892147540363318 8.421203824874622 4.107852459636683
    vertex 35.0 6.95 4.717245036914925
    vertex 35.0 8.421203824874622 4.107852459636684
  endloop
endfacet
facet normal 1.742536706900652e-16 0.7071067811865477 0.7071067811865474
  outer loop
    vertex 0.0 5.686648634762061 5.68664863476206
    vertex 11.950000000000001 4.717245036914924 6.949999999999998
    vertex 10.68664863476206 5.68664863476206 5.686648634762058
  endloop
endfacet
facet normal 1.1043929670518325e-16 0.8935121718738372 0.4490389723768958
  outer loop
    vertex 11.950000000000001 4.717245036914924 6.949999999999998
    vertex 0.0 5.686648634762061 5.68664863476206
    vertex 0.0 4.717245036914925 6.95
  endloop
endfacet
facet normal -8.130905055837486e-17 -0.27741641724095034 -0.9607497756675227
  outer loop
    vertex 9.10785245963668 11.578796175125378 15.892147540363313
    vertex 0.0 10.000000000000002 16.099999999999998
    vertex 0.0 11.57879617512538 15.892147540363313
  endloop
endfacet
facet normal -1.6354324242637381e-19 9.802220885211596e-17 -1.0
  outer loop
    vertex 0.0 10.000000000000002 16.099999999999998
    vertex 9.10785245963668 11.578796175125378 15.892147540363313
    vertex 8.899999999999999 10.0 16.099999999999998
  endloop
endfacet
facet normal -1.5803357287385067e-16 -0.7409240719506589 -0.6715888024707193
  outer loop
    vertex 10.686648634762056 14.31335136523794 14.313351365237935
    vertex 0.0 15.282754963085077 13.049999999999995
    vertex 11.949999999999996 15.282754963085074 13.049999999999994
  endloop
endfacet
facet normal -1.6491158324047626e-16 -0.8660254037844388 -0.4999999999999999
  outer loop
    vertex 0.0 15.282754963085077 13.049999999999995
    vertex 10.686648634762056 14.31335136523794 14.313351365237935
    vertex 0.0 14.31335136523794 14.313351365237935
  endloop
endfacet
facet normal -6.722180172641235e-17 -0.8660254037844388 -0.5000000000000001
  outer loop
    vertex 35.0 15.282754963085077 13.049999999999995
    vertex 16.578796175125373 15.892147540363318 11.578796175125373
    vertex 35.0 15.892147540363316 11.578796175125373
  endloop
endfacet
facet normal -1.3184858125790004e-16 -0.9803428392262995 -0.19730159040848558
  outer loop
    vertex 16.578796175125373 15.892147540363318 11.578796175125373
    vertex 35.0 15.282754963085077 13.049999999999995
    vertex 18.049999999999994 15.282754963085079 13.049999999999994
  endloop
endfacet
facet normal -1.4732598987204363e-16 -0.9659258262890683 0.25881904510252113
  outer loop
    vertex 35.0 15.892147540363313 8.421203824874622
    vertex 18.049999999999994 15.282754963085077 6.949999999999998
    vertex 35.0 15.282754963085074 6.9499999999999975
  endloop
endfacet
facet normal -1.2261871127243298e-16 -0.8935121718738372 0.44903897237689566
  outer loop
    vertex 18.049999999999994 15.282754963085077 6.949999999999998
    vertex 35.0 15.892147540363313 8.421203824874622
    vertex 16.578796175125373 15.892147540363316 8.42120382487462
  endloop
endfacet
facet normal -1.4732598987204363e-16 -0.9659258262890683 0.25881904510252113
  outer loop
    vertex 35.0 15.892147540363313 8.421203824874622
    vertex 15.999999999999998 15.968347502412602 8.999999999999982
    vertex 16.578796175125373 15.892147540363316 8.42120382487462
  endloop
endfacet
facet normal -1.456390610803008e-16 -0.9914448613738103 0.1305261922200528
  outer loop
    vertex 15.999999999999998 15.968347502412602 8.999999999999982
    vertex 35.0 15.892147540363313 8.421203824874622
    vertex 35.0 16.099999999999998 9.999999999999996
  endloop
endfacet
facet normal -1.456390610803008e-16 -0.9914448613738103 0.1305261922200528
  outer loop
    vertex 15.999999999999998 15.968347502412602 8.999999999999982
    vertex 35.0 16.099999999999998 9.999999999999996
    vertex 15.999999999999998 16.1 9.999999999999996
  endloop
endfacet
facet normal -3.543988328547171e-17 -0.9803428392262995 -0.19730159040848627
  outer loop
    vertex 13.421203824874617 15.892147540363316 11.578796175125373
    vertex 0.0 16.099999999999998 9.999999999999996
    vertex 15.0 16.099999999999998 9.999999999999996
  endloop
endfacet
facet normal 3.491322887255719e-18 -1.0 7.841776708169277e-16
  outer loop
    vertex 0.0 16.099999999999998 9.999999999999996
    vertex 13.421203824874617 15.892147540363316 11.578796175125373
    vertex 0.0 15.892147540363316 11.578796175125373
  endloop
endfacet
facet normal -0.9914448613738105 0.13052619222005096 1.3389526577839069e-14
  outer loop
    vertex 21.099999999999998 10.0 3.8999999999999986
    vertex 20.892147540363315 8.421203824874622 3.8999999999999986
    vertex 20.892147540363318 8.421203824874622 4.107852459636683
  endloop
endfacet
facet normal 0.9607497756675233 -0.2774164172409485 -9.219707285365555e-16
  outer loop
    vertex 9.10785245963668 11.578796175125374 4.107852459636683
    vertex 8.899999999999999 9.999999999999998 3.8999999999999986
    vertex 9.10785245963668 11.578796175125374 3.8999999999999986
  endloop
endfacet
facet normal -0.9659258262890678 -0.2588190451025226 5.534915864454216e-15
  outer loop
    vertex 20.89214754036331 11.578796175125381 3.8999999999999986
    vertex 21.099999999999998 10.0 3.8999999999999986
    vertex 20.892147540363315 11.57879617512538 4.107852459636683
  endloop
endfacet
facet normal 1.0 2.386884709970836e-16 1.4005831734368442e-17
  outer loop
    vertex 14.999999999999998 20.0 3.8999999999999986
    vertex 15.0 16.099999999999998 9.999999999999996
    vertex 14.999999999999998 16.099999999999998 3.8999999999999986
  endloop
endfacet
facet normal 1.0 2.386884709970836e-16 1.4005831734368442e-17
  outer loop
    vertex 15.0 16.099999999999998 9.999999999999996
    vertex 14.999999999999998 20.0 3.8999999999999986
    vertex 14.999999999999998 16.099999999999998 19.999999999999996
  endloop
endfacet
facet normal 1.0 2.386884709970836e-16 1.4005831734368442e-17
  outer loop
    vertex 14.999999999999998 16.099999999999998 19.999999999999996
    vertex 14.999999999999998 20.0 3.8999999999999986
    vertex 14.999999999999998 20.0 19.999999999999996
  endloop
endfacet
facet normal 0.9914448613738105 0.1305261922200519 -7.379454988922671e-15
  outer loop
    vertex 8.899999999999999 9.999999999999998 3.8999999999999986
    vertex 9.107852459636684 8.421203824874622 4.107852459636683
    vertex 9.107852459636682 8.421203824874622 3.8999999999999986
  endloop
endfacet
facet normal -1.0 0.0 0.0
  outer loop
    vertex 15.999999999999998 20.0 19.999999999999996
    vertex 15.999999999999998 15.968347502412602 11.000000000000021
    vertex 15.999999999999998 15.968347502412602 19.999999999999996
  endloop
endfacet
facet normal -1.0 0.0 0.0
  outer loop
    vertex 15.999999999999998 15.968347502412602 11.000000000000021
    vertex 15.999999999999998 20.0 19.999999999999996
    vertex 15.999999999999998 16.1 9.999999999999996
  endloop
endfacet
facet normal -1.0 0.0 0.0
  outer loop
    vertex 15.999999999999998 16.1 9.999999999999996
    vertex 15.999999999999998 15.968347502412602 3.8999999999999986
    vertex 15.999999999999998 15.968347502412602 8.999999999999982
  endloop
endfacet
facet normal -1.0 0.0 0.0
  outer loop
    vertex 15.999999999999998 15.968347502412602 3.8999999999999986
    vertex 15.999999999999998 16.1 9.999999999999996
    vertex 15.999999999999998 20.0 3.8999999999999986
  endloop
endfacet
facet normal -1.0 0.0 0.0
  outer loop
    vertex 15.999999999999998 20.0 3.8999999999999986
    vertex 15.999999999999998 16.1 9.999999999999996
    vertex 15.999999999999998 20.0 19.999999999999996
  endloop
endfacet
facet normal 0.0 0.0 1.0
  outer loop
    vertex 15.999999999999998 15.968347502412602 3.8999999999999986
    vertex 14.999999999999998 20.0 3.8999999999999986
    vertex 14.999999999999998 16.099999999999998 3.8999999999999986
  endloop
endfacet
facet normal 0.0 0.0 1.0
  outer loop
    vertex 14.999999999999998 20.0 3.8999999999999986
    vertex 15.999999999999998 15.968347502412602 3.8999999999999986
    vertex 15.999999999999998 20.0 3.8999999999999986
  endloop
endfacet
facet normal 1.0 2.386884709970838e-16 -1.4005831734368414e-17
  outer loop
    vertex 14.999999999999998 3.9 3.899999999999994
    vertex 14.999999999999998 0.0 19.999999999999996
    vertex 14.999999999999998 0.0 3.899999999999994
  endloop
endfacet
facet normal 1.0 2.386884709970838e-16 -1.4005831734368414e-17
  outer loop
    vertex 14.999999999999998 0.0 19.999999999999996
    vertex 14.999999999999998 3.9 3.899999999999994
    vertex 14.999999999999998 3.9 19.999999999999996
  endloop
endfacet
facet normal 1.0 2.386884709970838e-16 -1.4005831734368414e-17
  outer loop
    vertex 14.999999999999998 3.9 19.999999999999996
    vertex 14.999999999999998 3.9 3.899999999999994
    vertex 14.999999999999995 3.900000000000001 9.999999999999998
  endloop
endfacet
facet normal -1.0 0.0 0.0
  outer loop
    vertex 15.999999999999998 4.031652497587396 19.999999999999996
    vertex 15.999999999999998 0.0 3.899999999999994
    vertex 15.999999999999998 0.0 19.999999999999996
  endloop
endfacet
facet normal -1.0 0.0 0.0
  outer loop
    vertex 15.999999999999998 0.0 3.899999999999994
    vertex 15.999999999999998 4.031652497587396 19.999999999999996
    vertex 15.999999999999998 3.900000000000001 10.0
  endloop
endfacet
facet normal -1.0 0.0 0.0
  outer loop
    vertex 15.999999999999998 3.900000000000001 10.0
    vertex 15.999999999999998 4.031652497587396 19.999999999999996
    vertex 15.999999999999998 4.031652497587396 11.0
  endloop
endfacet
facet normal -1.0 0.0 0.0
  outer loop
    vertex 15.999999999999998 3.900000000000001 10.0
    vertex 15.999999999999998 4.031652497587396 3.899999999999994
    vertex 15.999999999999998 0.0 3.899999999999994
  endloop
endfacet
facet normal -1.0 0.0 0.0
  outer loop
    vertex 15.999999999999998 4.031652497587396 3.899999999999994
    vertex 15.999999999999998 3.900000000000001 10.0
    vertex 15.999999999999998 4.031652497587396 9.000000000000002
  endloop
endfacet
facet normal 0.0 0.0 1.0
  outer loop
    vertex 15.999999999999998 0.0 3.899999999999994
    vertex 14.999999999999998 3.9 3.899999999999994
    vertex 14.999999999999998 0.0 3.899999999999994
  endloop
endfacet
facet normal 0.0 0.0 1.0
  outer loop
    vertex 14.999999999999998 3.9 3.899999999999994
    vertex 15.999999999999998 0.0 3.899999999999994
    vertex 15.999999999999998 4.031652497587396 3.899999999999994
  endloop
endfacet
facet normal 0.0 1.0 0.0
  outer loop
    vertex 0.0 20.0 0.0
    vertex 14.999999999999998 20.0 3.8999999999999986
    vertex 35.0 20.0 0.0
  endloop
endfacet
facet normal 0.0 1.0 0.0
  outer loop
    vertex 14.999999999999998 20.0 3.8999999999999986
    vertex 0.0 20.0 0.0
    vertex 0.0 20.0 19.999999999999996
  endloop
endfacet
facet normal 0.0 1.0 0.0
  outer loop
    vertex 14.999999999999998 20.0 3.8999999999999986
    vertex 0.0 20.0 19.999999999999996
    vertex 14.999999999999998 20.0 19.999999999999996
  endloop
endfacet
facet normal 0.0 1.0 0.0
  outer loop
    vertex 35.0 20.0 0.0
    vertex 15.999999999999998 20.0 3.8999999999999986
    vertex 35.0 20.0 19.999999999999996
  endloop
endfacet
facet normal 0.0 1.0 0.0
  outer loop
    vertex 15.999999999999998 20.0 3.8999999999999986
    vertex 35.0 20.0 0.0
    vertex 14.999999999999998 20.0 3.8999999999999986
  endloop
endfacet
facet normal 0.0 1.0 0.0
  outer loop
    vertex 35.0 20.0 19.999999999999996
    vertex 15.999999999999998 20.0 3.8999999999999986
    vertex 15.999999999999998 20.0 19.999999999999996
  endloop
endfacet
facet normal -1.0 0.0 0.0
  outer loop
    vertex 0.0 0.0 19.999999999999996
    vertex 0.0 4.107852459636686 11.57879617512538
    vertex 0.0 0.0 0.0
  endloop
endfacet
facet normal -1.0 0.0 0.0
  outer loop
    vertex 0.0 4.107852459636686 11.57879617512538
    vertex 0.0 0.0 19.999999999999996
    vertex 0.0 4.717245036914927 13.05
  endloop
endfacet
facet normal -1.0 0.0 0.0
  outer loop
    vertex 0.0 4.717245036914927 13.05
    vertex 0.0 0.0 19.999999999999996
    vertex 0.0 5.6866486347620615 14.31335136523794
  endloop
endfacet
facet normal -1.0 0.0 0.0
  outer loop
    vertex 0.0 5.6866486347620615 14.31335136523794
    vertex 0.0 0.0 19.999999999999996
    vertex 0.0 6.950000000000005 15.282754963085077
  endloop
endfacet
facet normal -1.0 0.0 0.0
  outer loop
    vertex 0.0 6.950000000000005 15.282754963085077
    vertex 0.0 0.0 19.999999999999996
    vertex 0.0 8.421203824874627 15.892147540363313
  endloop
endfacet
facet normal -1.0 0.0 0.0
  outer loop
    vertex 0.0 8.421203824874627 15.892147540363313
    vertex 0.0 0.0 19.999999999999996
    vertex 0.0 20.0 19.999999999999996
  endloop
endfacet
facet normal -1.0 0.0 0.0
  outer loop
    vertex 0.0 0.0 0.0
    vertex 0.0 4.107852459636686 11.57879617512538
    vertex 0.0 3.9000000000000012 9.999999999999998
  endloop
endfacet
facet normal -1.0 0.0 0.0
  outer loop
    vertex 0.0 8.421203824874627 15.892147540363313
    vertex 0.0 20.0 19.999999999999996
    vertex 0.0 10.000000000000002 16.099999999999998
  endloop
endfacet
facet normal -1.0 0.0 0.0
  outer loop
    vertex 0.0 10.000000000000002 16.099999999999998
    vertex 0.0 20.0 19.999999999999996
    vertex 0.0 11.57879617512538 15.892147540363313
  endloop
endfacet
facet normal -1.0 0.0 0.0
  outer loop
    vertex 0.0 11.57879617512538 15.892147540363313
    vertex 0.0 20.0 19.999999999999996
    vertex 0.0 13.05 15.28275496308507
  endloop
endfacet
facet normal -1.0 0.0 0.0
  outer loop
    vertex 0.0 13.05 15.28275496308507
    vertex 0.0 20.0 19.999999999999996
    vertex 0.0 14.31335136523794 14.313351365237935
  endloop
endfacet
facet normal -1.0 0.0 0.0
  outer loop
    vertex 0.0 14.31335136523794 14.313351365237935
    vertex 0.0 20.0 19.999999999999996
    vertex 0.0 15.282754963085077 13.049999999999995
  endloop
endfacet
facet normal -1.0 0.0 0.0
  outer loop
    vertex 0.0 15.282754963085077 13.049999999999995
    vertex 0.0 20.0 19.999999999999996
    vertex 0.0 15.892147540363316 11.578796175125373
  endloop
endfacet
facet normal -1.0 0.0 0.0
  outer loop
    vertex 0.0 15.892147540363316 11.578796175125373
    vertex 0.0 20.0 19.999999999999996
    vertex 0.0 16.099999999999998 9.999999999999996
  endloop
endfacet
facet normal -1.0 0.0 0.0
  outer loop
    vertex 0.0 0.0 0.0
    vertex 0.0 8.421203824874622 4.107852459636684
    vertex 0.0 20.0 0.0
  endloop
endfacet
facet normal -1.0 0.0 0.0
  outer loop
    vertex 0.0 8.421203824874622 4.107852459636684
    vertex 0.0 0.0 0.0
    vertex 0.0 6.95 4.717245036914925
  endloop
endfacet
facet normal -1.0 0.0 0.0
  outer loop
    vertex 0.0 6.95 4.717245036914925
    vertex 0.0 0.0 0.0
    vertex 0.0 5.686648634762061 5.68664863476206
  endloop
endfacet
facet normal -1.0 0.0 0.0
  outer loop
    vertex 0.0 5.686648634762061 5.68664863476206
    vertex 0.0 0.0 0.0
    vertex 0.0 4.717245036914925 6.95
  endloop
endfacet
facet normal -1.0 0.0 0.0
  outer loop
    vertex 0.0 4.717245036914925 6.95
    vertex 0.0 0.0 0.0
    vertex 0.0 4.1078524596366846 8.421203824874622
  endloop
endfacet
facet normal -1.0 0.0 0.0
  outer loop
    vertex 0.0 4.1078524596366846 8.421203824874622
    vertex 0.0 0.0 0.0
    vertex 0.0 3.9000000000000012 9.999999999999998
  endloop
endfacet
facet normal -1.0 0.0 0.0
  outer loop
    vertex 0.0 20.0 0.0
    vertex 0.0 8.421203824874622 4.107852459636684
    vertex 0.0 10.0 3.9
  endloop
endfacet
facet normal -1.0 0.0 0.0
  outer loop
    vertex 0.0 20.0 0.0
    vertex 0.0 10.0 3.9
    vertex 0.0 11.578796175125376 4.107852459636683
  endloop
endfacet
facet normal -1.0 0.0 0.0
  outer loop
    vertex 0.0 20.0 0.0
    vertex 0.0 11.578796175125376 4.107852459636683
    vertex 0.0 13.049999999999999 4.717245036914923
  endloop
endfacet
facet normal -1.0 0.0 0.0
  outer loop
    vertex 0.0 20.0 0.0
    vertex 0.0 13.049999999999999 4.717245036914923
    vertex 0.0 14.31335136523794 5.686648634762059
  endloop
endfacet
facet normal -1.0 0.0 0.0
  outer loop
    vertex 0.0 20.0 0.0
    vertex 0.0 14.31335136523794 5.686648634762059
    vertex 0.0 15.282754963085074 6.9499999999999975
  endloop
endfacet
facet normal -1.0 0.0 0.0
  outer loop
    vertex 0.0 20.0 0.0
    vertex 0.0 15.282754963085074 6.9499999999999975
    vertex 0.0 15.892147540363313 8.421203824874622
  endloop
endfacet
facet normal -1.0 0.0 0.0
  outer loop
    vertex 0.0 20.0 0.0
    vertex 0.0 15.892147540363313 8.421203824874622
    vertex 0.0 16.099999999999998 9.999999999999996
  endloop
endfacet
facet normal -1.0 0.0 0.0
  outer loop
    vertex 0.0 20.0 0.0
    vertex 0.0 16.099999999999998 9.999999999999996
    vertex 0.0 20.0 19.999999999999996
  endloop
endfacet
facet normal 0.0 0.0 -1.0
  outer loop
    vertex 35.0 20.0 0.0
    vertex 0.0 0.0 0.0
    vertex 0.0 20.0 0.0
  endloop
endfacet
facet normal 0.0 0.0 -1.0
  outer loop
    vertex 0.0 0.0 0.0
    vertex 35.0 20.0 0.0
    vertex 35.0 0.0 0.0
  endloop
endfacet
facet normal -0.0 -1.0 -0.0
  outer loop
    vertex 35.0 0.0 0.0
    vertex 15.999999999999998 0.0 3.899999999999994
    vertex 0.0 0.0 0.0
  endloop
endfacet
facet normal -0.0 -1.0 -0.0
  outer loop
    vertex 15.999999999999998 0.0 3.899999999999994
    vertex 35.0 0.0 0.0
    vertex 35.0 0.0 19.999999999999996
  endloop
endfacet
facet normal -0.0 -1.0 -0.0
  outer loop
    vertex 15.999999999999998 0.0 3.899999999999994
    vertex 35.0 0.0 19.999999999999996
    vertex 15.999999999999998 0.0 19.999999999999996
  endloop
endfacet
facet normal -0.0 -1.0 -0.0
  outer loop
    vertex 0.0 0.0 0.0
    vertex 14.999999999999998 0.0 3.899999999999994
    vertex 0.0 0.0 19.999999999999996
  endloop
endfacet
facet normal -0.0 -1.0 -0.0
  outer loop
    vertex 14.999999999999998 0.0 3.899999999999994
    vertex 0.0 0.0 0.0
    vertex 15.999999999999998 0.0 3.899999999999994
  endloop
endfacet
facet normal -0.0 -1.0 -0.0
  outer loop
    vertex 0.0 0.0 19.999999999999996
    vertex 14.999999999999998 0.0 3.899999999999994
    vertex 14.999999999999998 0.0 19.999999999999996
  endloop
endfacet
facet normal 1.0 0.0 0.0
  outer loop
    vertex 35.0 0.0 0.0
    vertex 35.0 4.1078524596366846 8.421203824874622
    vertex 35.0 0.0 19.999999999999996
  endloop
endfacet
facet normal 1.0 0.0 0.0
  outer loop
    vertex 35.0 4.1078524596366846 8.421203824874622
    vertex 35.0 0.0 0.0
    vertex 35.0 4.717245036914925 6.95
  endloop
endfacet
facet normal 1.0 0.0 0.0
  outer loop
    vertex 35.0 4.717245036914925 6.95
    vertex 35.0 0.0 0.0
    vertex 35.0 5.686648634762061 5.68664863476206
  endloop
endfacet
facet normal 1.0 0.0 0.0
  outer loop
    vertex 35.0 5.686648634762061 5.68664863476206
    vertex 35.0 0.0 0.0
    vertex 35.0 6.95 4.717245036914925
  endloop
endfacet
facet normal 1.0 0.0 0.0
  outer loop
    vertex 35.0 6.95 4.717245036914925
    vertex 35.0 0.0 0.0
    vertex 35.0 8.421203824874622 4.107852459636684
  endloop
endfacet
facet normal 1.0 0.0 0.0
  outer loop
    vertex 35.0 8.421203824874622 4.107852459636684
    vertex 35.0 0.0 0.0
    vertex 35.0 20.0 0.0
  endloop
endfacet
facet normal 1.0 0.0 0.0
  outer loop
    vertex 35.0 0.0 19.999999999999996
    vertex 35.0 4.1078524596366846 8.421203824874622
    vertex 35.0 3.9000000000000012 9.999999999999998
  endloop
endfacet
facet normal 1.0 0.0 0.0
  outer loop
    vertex 35.0 8.421203824874622 4.107852459636684
    vertex 35.0 20.0 0.0
    vertex 35.0 10.0 3.9
  endloop
endfacet
facet normal 1.0 0.0 0.0
  outer loop
    vertex 35.0 10.0 3.9
    vertex 35.0 20.0 0.0
    vertex 35.0 11.578796175125376 4.107852459636683
  endloop
endfacet
facet normal 1.0 0.0 0.0
  outer loop
    vertex 35.0 11.578796175125376 4.107852459636683
    vertex 35.0 20.0 0.0
    vertex 35.0 13.049999999999999 4.717245036914923
  endloop
endfacet
facet normal 1.0 0.0 0.0
  outer loop
    vertex 35.0 13.049999999999999 4.717245036914923
    vertex 35.0 20.0 0.0
    vertex 35.0 14.31335136523794 5.686648634762059
  endloop
endfacet
facet normal 1.0 0.0 0.0
  outer loop
    vertex 35.0 14.31335136523794 5.686648634762059
    vertex 35.0 20.0 0.0
    vertex 35.0 15.282754963085074 6.9499999999999975
  endloop
endfacet
facet normal 1.0 0.0 0.0
  outer loop
    vertex 35.0 15.282754963085074 6.9499999999999975
    vertex 35.0 20.0 0.0
    vertex 35.0 15.892147540363313 8.421203824874622
  endloop
endfacet
facet normal 1.0 0.0 0.0
  outer loop
    vertex 35.0 15.892147540363313 8.421203824874622
    vertex 35.0 20.0 0.0
    vertex 35.0 16.099999999999998 9.999999999999996
  endloop
endfacet
facet normal 1.0 0.0 0.0
  outer loop
    vertex 35.0 0.0 19.999999999999996
    vertex 35.0 8.421203824874627 15.892147540363313
    vertex 35.0 20.0 19.999999999999996
  endloop
endfacet
facet normal 1.0 0.0 0.0
  outer loop
    vertex 35.0 8.421203824874627 15.892147540363313
    vertex 35.0 0.0 19.999999999999996
    vertex 35.0 6.950000000000005 15.282754963085077
  endloop
endfacet
facet normal 1.0 0.0 0.0
  outer loop
    vertex 35.0 6.950000000000005 15.282754963085077
    vertex 35.0 0.0 19.999999999999996
    vertex 35.0 5.6866486347620615 14.31335136523794
  endloop
endfacet
facet normal 1.0 0.0 0.0
  outer loop
    vertex 35.0 5.6866486347620615 14.31335136523794
    vertex 35.0 0.0 19.999999999999996
    vertex 35.0 4.717245036914927 13.05
  endloop
endfacet
facet normal 1.0 0.0 0.0
  outer loop
    vertex 35.0 4.717245036914927 13.05
    vertex 35.0 0.0 19.999999999999996
    vertex 35.0 4.107852459636686 11.57879617512538
  endloop
endfacet
facet normal 1.0 0.0 0.0
  outer loop
    vertex 35.0 4.107852459636686 11.57879617512538
    vertex 35.0 0.0 19.999999999999996
    vertex 35.0 3.9000000000000012 9.999999999999998
  endloop
endfacet
facet normal 1.0 0.0 0.0
  outer loop
    vertex 35.0 20.0 19.999999999999996
    vertex 35.0 8.421203824874627 15.892147540363313
    vertex 35.0 10.000000000000002 16.099999999999998
  endloop
endfacet
facet normal 1.0 0.0 0.0
  outer loop
    vertex 35.0 20.0 19.999999999999996
    vertex 35.0 10.000000000000002 16.099999999999998
    vertex 35.0 11.57879617512538 15.892147540363313
  endloop
endfacet
facet normal 1.0 0.0 0.0
  outer loop
    vertex 35.0 20.0 19.999999999999996
    vertex 35.0 11.57879617512538 15.892147540363313
    vertex 35.0 13.05 15.28275496308507
  endloop
endfacet
facet normal 1.0 0.0 0.0
  outer loop
    vertex 35.0 20.0 19.999999999999996
    vertex 35.0 13.05 15.28275496308507
    vertex 35.0 14.31335136523794 14.313351365237935
  endloop
endfacet
facet normal 1.0 0.0 0.0
  outer loop
    vertex 35.0 20.0 19.999999999999996
    vertex 35.0 14.31335136523794 14.313351365237935
    vertex 35.0 15.282754963085077 13.049999999999995
  endloop
endfacet
facet normal 1.0 0.0 0.0
  outer loop
    vertex 35.0 20.0 19.999999999999996
    vertex 35.0 15.282754963085077 13.049999999999995
    vertex 35.0 15.892147540363316 11.578796175125373
  endloop
endfacet
facet normal 1.0 0.0 0.0
  outer loop
    vertex 35.0 20.0 19.999999999999996
    vertex 35.0 15.892147540363316 11.578796175125373
    vertex 35.0 16.099999999999998 9.999999999999996
  endloop
endfacet
facet normal 1.0 0.0 0.0
  outer loop
    vertex 35.0 20.0 19.999999999999996
    vertex 35.0 16.099999999999998 9.999999999999996
    vertex 35.0 20.0 0.0
  endloop
endfacet
facet normal 0.4490389723768966 -0.8935121718738367 -1.9500612313374873e-16
  outer loop
    vertex 11.949999999999996 15.282754963085074 6.949999999999998
    vertex 10.686648634762056 14.313351365237937 3.8999999999999986
    vertex 11.949999999999996 15.282754963085074 3.8999999999999986
  endloop
endfacet
facet normal 0.7071067811865476 -0.7071067811865476 4.674164210857095e-16
  outer loop
    vertex 10.686648634762056 14.313351365237937 3.8999999999999986
    vertex 11.949999999999996 15.282754963085074 6.949999999999998
    vertex 10.686648634762056 14.31335136523794 5.686648634762058
  endloop
endfacet
facet normal 0.0 0.0 1.0
  outer loop
    vertex 0.0 0.0 19.999999999999996
    vertex 9.717245036914923 6.949999999999998 19.999999999999996
    vertex 0.0 20.0 19.999999999999996
  endloop
endfacet
facet normal 0.0 0.0 1.0
  outer loop
    vertex 9.717245036914923 6.949999999999998 19.999999999999996
    vertex 0.0 0.0 19.999999999999996
    vertex 14.999999999999998 0.0 19.999999999999996
  endloop
endfacet
facet normal 0.0 0.0 1.0
  outer loop
    vertex 0.0 20.0 19.999999999999996
    vertex 9.717245036914923 6.949999999999998 19.999999999999996
    vertex 9.107852459636682 8.421203824874622 19.999999999999996
  endloop
endfacet
facet normal 0.0 0.0 1.0
  outer loop
    vertex 0.0 20.0 19.999999999999996
    vertex 9.107852459636682 8.421203824874622 19.999999999999996
    vertex 8.899999999999999 9.999999999999998 19.999999999999996
  endloop
endfacet
facet normal 0.0 0.0 1.0
  outer loop
    vertex 9.717245036914923 6.949999999999998 19.999999999999996
    vertex 14.999999999999998 0.0 19.999999999999996
    vertex 10.68664863476206 5.68664863476206 19.999999999999996
  endloop
endfacet
facet normal 0.0 0.0 1.0
  outer loop
    vertex 10.68664863476206 5.68664863476206 19.999999999999996
    vertex 14.999999999999998 0.0 19.999999999999996
    vertex 11.95 4.717245036914923 19.999999999999996
  endloop
endfacet
facet normal 0.0 0.0 1.0
  outer loop
    vertex 11.95 4.717245036914923 19.999999999999996
    vertex 14.999999999999998 0.0 19.999999999999996
    vertex 13.421203824874622 4.107852459636683 19.999999999999996
  endloop
endfacet
facet normal 0.0 0.0 1.0
  outer loop
    vertex 13.421203824874622 4.107852459636683 19.999999999999996
    vertex 14.999999999999998 0.0 19.999999999999996
    vertex 14.999999999999998 3.9 19.999999999999996
  endloop
endfacet
facet normal 0.0 0.0 1.0
  outer loop
    vertex 0.0 20.0 19.999999999999996
    vertex 9.71724503691492 13.049999999999999 19.999999999999996
    vertex 14.999999999999998 20.0 19.999999999999996
  endloop
endfacet
facet normal 0.0 0.0 1.0
  outer loop
    vertex 9.71724503691492 13.049999999999999 19.999999999999996
    vertex 0.0 20.0 19.999999999999996
    vertex 9.10785245963668 11.578796175125374 19.999999999999996
  endloop
endfacet
facet normal 0.0 0.0 1.0
  outer loop
    vertex 9.10785245963668 11.578796175125374 19.999999999999996
    vertex 0.0 20.0 19.999999999999996
    vertex 8.899999999999999 9.999999999999998 19.999999999999996
  endloop
endfacet
facet normal 0.0 0.0 1.0
  outer loop
    vertex 14.999999999999998 20.0 19.999999999999996
    vertex 9.71724503691492 13.049999999999999 19.999999999999996
    vertex 10.686648634762056 14.313351365237937 19.999999999999996
  endloop
endfacet
facet normal 0.0 0.0 1.0
  outer loop
    vertex 14.999999999999998 20.0 19.999999999999996
    vertex 10.686648634762056 14.313351365237937 19.999999999999996
    vertex 11.949999999999996 15.282754963085074 19.999999999999996
  endloop
endfacet
facet normal 0.0 0.0 1.0
  outer loop
    vertex 14.999999999999998 20.0 19.999999999999996
    vertex 11.949999999999996 15.282754963085074 19.999999999999996
    vertex 13.421203824874617 15.892147540363316 19.999999999999996
  endloop
endfacet
facet normal 0.0 0.0 1.0
  outer loop
    vertex 14.999999999999998 20.0 19.999999999999996
    vertex 13.421203824874617 15.892147540363316 19.999999999999996
    vertex 14.999999999999998 16.099999999999998 19.999999999999996
  endloop
endfacet
facet normal 0.0 0.0 1.0
  outer loop
    vertex 35.0 0.0 19.999999999999996
    vertex 15.999999999999998 4.031652497587396 19.999999999999996
    vertex 15.999999999999998 0.0 19.999999999999996
  endloop
endfacet
facet normal 0.0 0.0 1.0
  outer loop
    vertex 15.999999999999998 4.031652497587396 19.999999999999996
    vertex 35.0 0.0 19.999999999999996
    vertex 16.578796175125376 4.107852459636684 19.999999999999996
  endloop
endfacet
facet normal 0.0 0.0 1.0
  outer loop
    vertex 16.578796175125376 4.107852459636684 19.999999999999996
    vertex 35.0 0.0 19.999999999999996
    vertex 18.049999999999997 4.717245036914925 19.999999999999996
  endloop
endfacet
facet normal 0.0 0.0 1.0
  outer loop
    vertex 18.049999999999997 4.717245036914925 19.999999999999996
    vertex 35.0 0.0 19.999999999999996
    vertex 19.313351365237935 5.686648634762061 19.999999999999996
  endloop
endfacet
facet normal 0.0 0.0 1.0
  outer loop
    vertex 19.313351365237935 5.686648634762061 19.999999999999996
    vertex 35.0 0.0 19.999999999999996
    vertex 20.282754963085075 6.95 19.999999999999996
  endloop
endfacet
facet normal 0.0 0.0 1.0
  outer loop
    vertex 20.282754963085075 6.95 19.999999999999996
    vertex 35.0 0.0 19.999999999999996
    vertex 20.892147540363315 8.421203824874622 19.999999999999996
  endloop
endfacet
facet normal 0.0 0.0 1.0
  outer loop
    vertex 20.892147540363315 8.421203824874622 19.999999999999996
    vertex 35.0 0.0 19.999999999999996
    vertex 21.099999999999998 10.0 19.999999999999996
  endloop
endfacet
facet normal 0.0 0.0 1.0
  outer loop
    vertex 16.578796175125373 15.892147540363318 19.999999999999996
    vertex 15.999999999999998 20.0 19.999999999999996
    vertex 15.999999999999998 15.968347502412602 19.999999999999996
  endloop
endfacet
facet normal 0.0 0.0 1.0
  outer loop
    vertex 15.999999999999998 20.0 19.999999999999996
    vertex 16.578796175125373 15.892147540363318 19.999999999999996
    vertex 35.0 20.0 19.999999999999996
  endloop
endfacet
facet normal 0.0 0.0 1.0
  outer loop
    vertex 35.0 20.0 19.999999999999996
    vertex 16.578796175125373 15.892147540363318 19.999999999999996
    vertex 18.049999999999994 15.282754963085079 19.999999999999996
  endloop
endfacet
facet normal 0.0 0.0 1.0
  outer loop
    vertex 35.0 20.0 19.999999999999996
    vertex 18.049999999999994 15.282754963085079 19.999999999999996
    vertex 19.313351365237935 14.31335136523794 19.999999999999996
  endloop
endfacet
facet normal 0.0 0.0 1.0
  outer loop
    vertex 35.0 20.0 19.999999999999996
    vertex 19.313351365237935 14.31335136523794 19.999999999999996
    vertex 20.282754963085072 13.050000000000004 19.999999999999996
  endloop
endfacet
facet normal 0.0 0.0 1.0
  outer loop
    vertex 35.0 20.0 19.999999999999996
    vertex 20.282754963085072 13.050000000000004 19.999999999999996
    vertex 20.89214754036331 11.578796175125381 19.999999999999996
  endloop
endfacet
facet normal 0.0 0.0 1.0
  outer loop
    vertex 35.0 20.0 19.999999999999996
    vertex 20.89214754036331 11.578796175125381 19.999999999999996
    vertex 21.099999999999998 10.0 19.999999999999996
  endloop
endfacet
facet normal 0.0 0.0 1.0
  outer loop
    vertex 35.0 20.0 19.999999999999996
    vertex 21.099999999999998 10.0 19.999999999999996
    vertex 35.0 0.0 19.999999999999996
  endloop
endfacet
facet normal 1.1258020981687366e-17 -3.0586934723409535e-16 1.0
  outer loop
    vertex 9.107852459636682 8.421203824874622 3.8999999999999986
    vertex 21.099999999999998 10.0 3.8999999999999986
    vertex 8.899999999999999 9.999999999999998 3.8999999999999986
  endloop
endfacet
facet normal 1.1258020981687366e-17 -3.0586934723409535e-16 1.0
  outer loop
    vertex 21.099999999999998 10.0 3.8999999999999986
    vertex 9.107852459636682 8.421203824874622 3.8999999999999986
    vertex 9.717245036914923 6.949999999999998 3.8999999999999986
  endloop
endfacet
facet normal 1.1258020981687366e-17 -3.0586934723409535e-16 1.0
  outer loop
    vertex 21.099999999999998 10.0 3.8999999999999986
    vertex 9.717245036914923 6.949999999999998 3.8999999999999986
    vertex 10.68664863476206 5.68664863476206 3.8999999999999986
  endloop
endfacet
facet normal 1.1258020981687366e-17 -3.0586934723409535e-16 1.0
  outer loop
    vertex 21.099999999999998 10.0 3.8999999999999986
    vertex 10.68664863476206 5.68664863476206 3.8999999999999986
    vertex 11.95 4.717245036914923 3.8999999999999986
  endloop
endfacet
facet normal 1.1258020981687366e-17 -3.0586934723409535e-16 1.0
  outer loop
    vertex 21.099999999999998 10.0 3.8999999999999986
    vertex 11.95 4.717245036914923 3.8999999999999986
    vertex 13.421203824874622 4.107852459636683 3.8999999999999986
  endloop
endfacet
facet normal 1.1258020981687366e-17 -3.0586934723409535e-16 1.0
  outer loop
    vertex 21.099999999999998 10.0 3.8999999999999986
    vertex 13.421203824874622 4.107852459636683 3.8999999999999986
    vertex 14.999999999999998 3.9 3.899999999999994
  endloop
endfacet
facet normal 1.1258020981687366e-17 -3.0586934723409535e-16 1.0
  outer loop
    vertex 21.099999999999998 10.0 3.8999999999999986
    vertex 14.999999999999998 3.9 3.899999999999994
    vertex 15.999999999999998 4.031652497587396 3.899999999999994
  endloop
endfacet
facet normal 1.1258020981687366e-17 -3.0586934723409535e-16 1.0
  outer loop
    vertex 21.099999999999998 10.0 3.8999999999999986
    vertex 15.999999999999998 4.031652497587396 3.899999999999994
    vertex 16.578796175125376 4.107852459636684 3.8999999999999986
  endloop
endfacet
facet normal 1.1258020981687366e-17 -3.0586934723409535e-16 1.0
  outer loop
    vertex 21.099999999999998 10.0 3.8999999999999986
    vertex 16.578796175125376 4.107852459636684 3.8999999999999986
    vertex 18.049999999999997 4.717245036914925 3.8999999999999986
  endloop
endfacet
facet normal 1.1258020981687366e-17 -3.0586934723409535e-16 1.0
  outer loop
    vertex 21.099999999999998 10.0 3.8999999999999986
    vertex 18.049999999999997 4.717245036914925 3.8999999999999986
    vertex 19.313351365237935 5.686648634762061 3.8999999999999986
  endloop
endfacet
facet normal 1.1258020981687366e-17 -3.0586934723409535e-16 1.0
  outer loop
    vertex 21.099999999999998 10.0 3.8999999999999986
    vertex 19.313351365237935 5.686648634762061 3.8999999999999986
    vertex 20.282754963085075 6.95 3.8999999999999986
  endloop
endfacet
facet normal 1.1258020981687366e-17 -3.0586934723409535e-16 1.0
  outer loop
    vertex 21.099999999999998 10.0 3.8999999999999986
    vertex 20.282754963085075 6.95 3.8999999999999986
    vertex 20.892147540363315 8.421203824874622 3.8999999999999986
  endloop
endfacet
facet normal -0.6715888024707196 -0.7409240719506588 -4.786612959225482e-16
  outer loop
    vertex 19.313351365237935 14.31335136523794 5.686648634762058
    vertex 20.282754963085072 13.050000000000004 3.8999999999999986
    vertex 20.282754963085072 13.05 4.717245036914922
  endloop
endfacet
facet normal -0.8660254037844383 -0.5000000000000009 -5.338246045370158e-16
  outer loop
    vertex 20.282754963085072 13.050000000000004 3.8999999999999986
    vertex 19.313351365237935 14.31335136523794 5.686648634762058
    vertex 19.313351365237935 14.31335136523794 3.8999999999999986
  endloop
endfacet
facet normal 0.6715888024707194 0.7409240719506589 2.3162280758795266e-16
  outer loop
    vertex 10.68664863476206 5.686648634762061 14.31335136523794
    vertex 9.717245036914923 6.949999999999998 19.999999999999996
    vertex 10.68664863476206 5.68664863476206 19.999999999999996
  endloop
endfacet
facet normal 0.8660254037844387 0.5 2.8350070148956147e-16
  outer loop
    vertex 9.717245036914923 6.949999999999998 19.999999999999996
    vertex 10.68664863476206 5.686648634762061 14.31335136523794
    vertex 9.717245036914923 6.950000000000001 15.282754963085077
  endloop
endfacet
facet normal 0.0 0.0 1.0
  outer loop
    vertex 21.099999999999998 10.0 3.8999999999999986
    vertex 9.10785245963668 11.578796175125374 3.8999999999999986
    vertex 8.899999999999999 9.999999999999998 3.8999999999999986
  endloop
endfacet
facet normal 0.0 0.0 1.0
  outer loop
    vertex 9.10785245963668 11.578796175125374 3.8999999999999986
    vertex 21.099999999999998 10.0 3.8999999999999986
    vertex 9.71724503691492 13.049999999999999 3.8999999999999986
  endloop
endfacet
facet normal 0.0 0.0 1.0
  outer loop
    vertex 9.71724503691492 13.049999999999999 3.8999999999999986
    vertex 21.099999999999998 10.0 3.8999999999999986
    vertex 10.686648634762056 14.313351365237937 3.8999999999999986
  endloop
endfacet
facet normal 0.0 0.0 1.0
  outer loop
    vertex 10.686648634762056 14.313351365237937 3.8999999999999986
    vertex 21.099999999999998 10.0 3.8999999999999986
    vertex 11.949999999999996 15.282754963085074 3.8999999999999986
  endloop
endfacet
facet normal 0.0 0.0 1.0
  outer loop
    vertex 11.949999999999996 15.282754963085074 3.8999999999999986
    vertex 21.099999999999998 10.0 3.8999999999999986
    vertex 13.421203824874617 15.892147540363316 3.8999999999999986
  endloop
endfacet
facet normal 0.0 0.0 1.0
  outer loop
    vertex 13.421203824874617 15.892147540363316 3.8999999999999986
    vertex 21.099999999999998 10.0 3.8999999999999986
    vertex 14.999999999999998 16.099999999999998 3.8999999999999986
  endloop
endfacet
facet normal 0.0 0.0 1.0
  outer loop
    vertex 14.999999999999998 16.099999999999998 3.8999999999999986
    vertex 21.099999999999998 10.0 3.8999999999999986
    vertex 15.999999999999998 15.968347502412602 3.8999999999999986
  endloop
endfacet
facet normal 0.0 0.0 1.0
  outer loop
    vertex 15.999999999999998 15.968347502412602 3.8999999999999986
    vertex 21.099999999999998 10.0 3.8999999999999986
    vertex 16.578796175125373 15.892147540363318 3.8999999999999986
  endloop
endfacet
facet normal 0.0 0.0 1.0
  outer loop
    vertex 16.578796175125373 15.892147540363318 3.8999999999999986
    vertex 21.099999999999998 10.0 3.8999999999999986
    vertex 18.049999999999994 15.282754963085079 3.8999999999999986
  endloop
endfacet
facet normal 0.0 0.0 1.0
  outer loop
    vertex 18.049999999999994 15.282754963085079 3.8999999999999986
    vertex 21.099999999999998 10.0 3.8999999999999986
    vertex 19.313351365237935 14.31335136523794 3.8999999999999986
  endloop
endfacet
facet normal 0.0 0.0 1.0
  outer loop
    vertex 19.313351365237935 14.31335136523794 3.8999999999999986
    vertex 21.099999999999998 10.0 3.8999999999999986
    vertex 20.282754963085072 13.050000000000004 3.8999999999999986
  endloop
endfacet
facet normal 0.0 0.0 1.0
  outer loop
    vertex 20.282754963085072 13.050000000000004 3.8999999999999986
    vertex 21.099999999999998 10.0 3.8999999999999986
    vertex 20.89214754036331 11.578796175125381 3.8999999999999986
  endloop
endfacet
facet normal 0.9659258262890683 0.2588190451025212 -3.93502301087661e-15
  outer loop
    vertex 9.107852459636682 8.421203824874622 3.8999999999999986
    vertex 9.717245036914923 6.949999999999998 4.717245036914922
    vertex 9.717245036914923 6.949999999999998 3.8999999999999986
  endloop
endfacet
facet normal 0.8473991514410741 0.5309563806349328 -1.4016862627961805e-16
  outer loop
    vertex 9.717245036914923 6.949999999999998 4.717245036914922
    vertex 9.107852459636682 8.421203824874622 3.8999999999999986
    vertex 9.107852459636684 8.421203824874622 4.107852459636683
  endloop
endfacet
facet normal -0.6715888024707196 -0.7409240719506588 -4.786612959225482e-16
  outer loop
    vertex 19.313351365237935 14.31335136523794 5.686648634762058
    vertex 18.049999999999994 15.282754963085079 3.8999999999999986
    vertex 19.313351365237935 14.31335136523794 3.8999999999999986
  endloop
endfacet
facet normal -0.5 -0.8660254037844387 -5.335751745980489e-16
  outer loop
    vertex 18.049999999999994 15.282754963085079 3.8999999999999986
    vertex 19.313351365237935 14.31335136523794 5.686648634762058
    vertex 18.049999999999994 15.282754963085077 6.949999999999998
  endloop
endfacet
facet normal 0.6715888024707194 0.7409240719506589 2.3162280758795266e-16
  outer loop
    vertex 10.68664863476206 5.686648634762061 14.31335136523794
    vertex 11.95 4.717245036914923 19.999999999999996
    vertex 11.950000000000001 4.717245036914925 13.049999999999999
  endloop
endfacet
facet normal 0.5 0.8660254037844387 2.455392972336065e-16
  outer loop
    vertex 11.95 4.717245036914923 19.999999999999996
    vertex 10.68664863476206 5.686648634762061 14.31335136523794
    vertex 10.68664863476206 5.68664863476206 19.999999999999996
  endloop
endfacet
facet normal -0.8473991514410741 -0.530956380634933 -4.749589443118165e-16
  outer loop
    vertex 20.282754963085072 13.05 4.717245036914922
    vertex 20.89214754036331 11.578796175125381 3.8999999999999986
    vertex 20.892147540363315 11.57879617512538 4.107852459636683
  endloop
endfacet
facet normal -0.9659258262890678 -0.2588190451025226 5.534915864454216e-15
  outer loop
    vertex 20.89214754036331 11.578796175125381 3.8999999999999986
    vertex 20.282754963085072 13.05 4.717245036914922
    vertex 20.282754963085072 13.050000000000004 3.8999999999999986
  endloop
endfacet
facet normal 0.8660254037844389 -0.49999999999999967 -4.494462210869642e-16
  outer loop
    vertex 9.71724503691492 13.049999999999999 3.8999999999999986
    vertex 9.10785245963668 11.578796175125374 4.107852459636683
    vertex 9.10785245963668 11.578796175125374 3.8999999999999986
  endloop
endfacet
facet normal 0.9607497756675233 -0.2774164172409485 -9.219707285365555e-16
  outer loop
    vertex 9.10785245963668 11.578796175125374 4.107852459636683
    vertex 9.71724503691492 13.049999999999999 3.8999999999999986
    vertex 9.717245036914921 13.049999999999999 4.717245036914922
  endloop
endfacet
facet normal 0.7071067811865476 -0.7071067811865476 4.674164210857095e-16
  outer loop
    vertex 10.686648634762056 14.313351365237937 3.8999999999999986
    vertex 9.717245036914921 13.049999999999999 4.717245036914922
    vertex 9.71724503691492 13.049999999999999 3.8999999999999986
  endloop
endfacet
facet normal 0.8473991514410745 -0.5309563806349322 -1.6249898008939886e-16
  outer loop
    vertex 9.717245036914921 13.049999999999999 4.717245036914922
    vertex 10.686648634762056 14.313351365237937 3.8999999999999986
    vertex 10.686648634762056 14.31335136523794 5.686648634762058
  endloop
endfacet
facet normal 3.49132288725572e-18 -1.0 8.6853809735362435e-16
  outer loop
    vertex 15.0 16.099999999999998 9.999999999999996
    vertex 0.0 15.892147540363313 8.421203824874622
    vertex 13.421203824874617 15.892147540363313 8.42120382487462
  endloop
endfacet
facet normal 3.874070527683967e-18 -0.9659258262890683 0.25881904510252113
  outer loop
    vertex 0.0 15.892147540363313 8.421203824874622
    vertex 15.0 16.099999999999998 9.999999999999996
    vertex 0.0 16.099999999999998 9.999999999999996
  endloop
endfacet
facet normal -0.4490389723768966 0.8935121718738367 2.331389467514678e-16
  outer loop
    vertex 18.05 4.717245036914925 6.949999999999998
    vertex 19.313351365237935 5.686648634762061 3.8999999999999986
    vertex 18.049999999999997 4.717245036914925 3.8999999999999986
  endloop
endfacet
facet normal -0.7071067811865472 0.7071067811865478 1.3002107199660598e-16
  outer loop
    vertex 19.313351365237935 5.686648634762061 3.8999999999999986
    vertex 18.05 4.717245036914925 6.949999999999998
    vertex 19.313351365237935 5.686648634762061 5.686648634762058
  endloop
endfacet
facet normal -2.634278769373228e-17 0.9803428392262995 0.19730159040848647
  outer loop
    vertex 16.57879617512538 4.107852459636684 8.421203824874622
    vertex 35.0 4.717245036914925 6.95
    vertex 18.05 4.717245036914925 6.949999999999998
  endloop
endfacet
facet normal -4.1269000559330545e-17 0.8660254037844388 0.49999999999999983
  outer loop
    vertex 35.0 4.717245036914925 6.95
    vertex 16.57879617512538 4.107852459636684 8.421203824874622
    vertex 35.0 4.1078524596366846 8.421203824874622
  endloop
endfacet
facet normal -0.19730159040848594 0.9803428392262996 8.235495224346059e-17
  outer loop
    vertex 16.57879617512538 4.107852459636684 8.421203824874622
    vertex 18.049999999999997 4.717245036914925 3.8999999999999986
    vertex 16.578796175125376 4.107852459636684 3.8999999999999986
  endloop
endfacet
facet normal -0.5000000000000004 0.8660254037844384 2.4863584648262403e-16
  outer loop
    vertex 18.049999999999997 4.717245036914925 3.8999999999999986
    vertex 16.57879617512538 4.107852459636684 8.421203824874622
    vertex 18.05 4.717245036914925 6.949999999999998
  endloop
endfacet
facet normal -0.258819045102521 0.9659258262890682 4.608873324669964e-17
  outer loop
    vertex 16.578796175125376 4.107852459636684 19.999999999999996
    vertex 18.05 4.7172450369149255 13.049999999999999
    vertex 16.57879617512538 4.107852459636685 11.57879617512538
  endloop
endfacet
facet normal -0.44903897237689655 0.8935121718738368 1.859199451413452e-17
  outer loop
    vertex 18.05 4.7172450369149255 13.049999999999999
    vertex 16.578796175125376 4.107852459636684 19.999999999999996
    vertex 18.049999999999997 4.717245036914925 19.999999999999996
  endloop
endfacet
facet normal -0.5000000000000007 0.8660254037844385 6.2281622371878936e-18
  outer loop
    vertex 18.049999999999997 4.717245036914925 19.999999999999996
    vertex 19.313351365237935 5.6866486347620615 14.31335136523794
    vertex 18.05 4.7172450369149255 13.049999999999999
  endloop
endfacet
facet normal -0.6715888024707198 0.7409240719506586 2.3508465474466047e-17
  outer loop
    vertex 19.313351365237935 5.6866486347620615 14.31335136523794
    vertex 18.049999999999997 4.717245036914925 19.999999999999996
    vertex 19.313351365237935 5.686648634762061 19.999999999999996
  endloop
endfacet
facet normal -0.1305261922200506 0.9914448613738105 3.597481747569964e-17
  outer loop
    vertex 15.999999999999998 4.031652497587396 9.000000000000002
    vertex 16.578796175125376 4.107852459636684 3.8999999999999986
    vertex 15.999999999999998 4.031652497587396 3.899999999999994
  endloop
endfacet
facet normal -0.25881904510252013 0.9659258262890684 1.2530919238356362e-16
  outer loop
    vertex 16.578796175125376 4.107852459636684 3.8999999999999986
    vertex 15.999999999999998 4.031652497587396 9.000000000000002
    vertex 16.57879617512538 4.107852459636684 8.421203824874622
  endloop
endfacet
facet normal -3.807170645191041e-17 0.893512171873837 0.44903897237689605
  outer loop
    vertex 18.05 4.717245036914925 6.949999999999998
    vertex 35.0 5.686648634762061 5.68664863476206
    vertex 19.313351365237935 5.686648634762061 5.686648634762058
  endloop
endfacet
facet normal -6.96556908319994e-17 0.7071067811865477 0.7071067811865475
  outer loop
    vertex 35.0 5.686648634762061 5.68664863476206
    vertex 18.05 4.717245036914925 6.949999999999998
    vertex 35.0 4.717245036914925 6.95
  endloop
endfacet
facet normal -2.3471768098000408e-17 0.9914448613738105 0.13052619222005152
  outer loop
    vertex 15.999999999999998 4.031652497587396 9.000000000000002
    vertex 35.0 4.1078524596366846 8.421203824874622
    vertex 16.57879617512538 4.107852459636684 8.421203824874622
  endloop
endfacet
facet normal -2.8913894249092893e-17 0.9659258262890683 0.25881904510252074
  outer loop
    vertex 35.0 4.1078524596366846 8.421203824874622
    vertex 15.999999999999998 4.031652497587396 9.000000000000002
    vertex 35.0 3.9000000000000012 9.999999999999998
  endloop
endfacet
facet normal -3.479218616841316e-17 1.0 -2.6733329686940717e-16
  outer loop
    vertex 35.0 3.9000000000000012 9.999999999999998
    vertex 15.999999999999998 4.031652497587396 9.000000000000002
    vertex 15.999999999999998 3.900000000000001 10.0
  endloop
endfacet
facet normal -0.13052619222005185 0.9914448613738105 5.730707879803445e-17
  outer loop
    vertex 15.999999999999998 4.031652497587396 19.999999999999996
    vertex 16.57879617512538 4.107852459636685 11.57879617512538
    vertex 15.999999999999998 4.031652497587396 11.0
  endloop
endfacet
facet normal -0.1973015904084868 0.9803428392262993 5.161529707543723e-17
  outer loop
    vertex 16.57879617512538 4.107852459636685 11.57879617512538
    vertex 15.999999999999998 4.031652497587396 19.999999999999996
    vertex 16.578796175125376 4.107852459636684 19.999999999999996
  endloop
endfacet
facet normal -3.479218616841316e-17 1.0 -2.6733329686940717e-16
  outer loop
    vertex 15.999999999999998 3.900000000000001 10.0
    vertex 35.0 4.107852459636686 11.57879617512538
    vertex 35.0 3.9000000000000012 9.999999999999998
  endloop
endfacet
facet normal -2.731505280094531e-17 0.9659258262890682 -0.25881904510252124
  outer loop
    vertex 35.0 4.107852459636686 11.57879617512538
    vertex 15.999999999999998 3.900000000000001 10.0
    vertex 15.999999999999998 4.031652497587396 11.0
  endloop
endfacet
facet normal -2.731505280094531e-17 0.9659258262890682 -0.25881904510252124
  outer loop
    vertex 35.0 4.107852459636686 11.57879617512538
    vertex 15.999999999999998 4.031652497587396 11.0
    vertex 16.57879617512538 4.107852459636685 11.57879617512538
  endloop
endfacet
facet normal -1.177688835038252e-18 0.8935121718738369 -0.4490389723768965
  outer loop
    vertex 18.05 4.7172450369149255 13.049999999999999
    vertex 35.0 4.107852459636686 11.57879617512538
    vertex 16.57879617512538 4.107852459636685 11.57879617512538
  endloop
endfacet
facet normal -2.731505280094531e-17 0.9659258262890682 -0.25881904510252124
  outer loop
    vertex 35.0 4.107852459636686 11.57879617512538
    vertex 18.05 4.7172450369149255 13.049999999999999
    vertex 35.0 4.717245036914927 13.05
  endloop
endfacet
facet normal -5.451978631907756e-18 0.740924071950659 -0.6715888024707193
  outer loop
    vertex 19.313351365237935 5.6866486347620615 14.31335136523794
    vertex 35.0 4.717245036914927 13.05
    vertex 18.05 4.7172450369149255 13.049999999999999
  endloop
endfacet
facet normal 4.7535030034153435e-18 0.8660254037844386 -0.4999999999999999
  outer loop
    vertex 35.0 4.717245036914927 13.05
    vertex 19.313351365237935 5.6866486347620615 14.31335136523794
    vertex 35.0 5.6866486347620615 14.31335136523794
  endloop
endfacet
facet normal 4.321862479690377e-17 0.8660254037844386 -0.4999999999999999
  outer loop
    vertex 0.0 4.717245036914927 13.05
    vertex 10.68664863476206 5.686648634762061 14.31335136523794
    vertex 11.950000000000001 4.717245036914925 13.049999999999999
  endloop
endfacet
facet normal 4.705010438877293e-17 0.740924071950659 -0.6715888024707193
  outer loop
    vertex 10.68664863476206 5.686648634762061 14.31335136523794
    vertex 0.0 4.717245036914927 13.05
    vertex 0.0 5.6866486347620615 14.31335136523794
  endloop
endfacet
facet normal -6.96556908319994e-17 0.7071067811865477 0.7071067811865475
  outer loop
    vertex 35.0 5.686648634762061 5.68664863476206
    vertex 20.282754963085075 6.95 4.717245036914922
    vertex 19.313351365237935 5.686648634762061 5.686648634762058
  endloop
endfacet
facet normal -9.914413508160685e-17 0.5309563806349324 0.8473991514410742
  outer loop
    vertex 20.282754963085075 6.95 4.717245036914922
    vertex 35.0 5.686648634762061 5.68664863476206
    vertex 35.0 6.95 4.717245036914925
  endloop
endfacet
facet normal 0.8660254037844388 0.5000000000000001 -2.0200879983283123e-16
  outer loop
    vertex 9.717245036914923 6.949999999999998 3.8999999999999986
    vertex 10.68664863476206 5.68664863476206 5.686648634762058
    vertex 10.68664863476206 5.68664863476206 3.8999999999999986
  endloop
endfacet
facet normal 0.6715888024707195 0.7409240719506588 -2.3530682904790957e-16
  outer loop
    vertex 10.68664863476206 5.68664863476206 5.686648634762058
    vertex 9.717245036914923 6.949999999999998 3.8999999999999986
    vertex 9.717245036914923 6.949999999999998 4.717245036914922
  endloop
endfacet
facet normal 0.6715888024707195 0.7409240719506588 -2.3530682904790957e-16
  outer loop
    vertex 10.68664863476206 5.68664863476206 5.686648634762058
    vertex 11.95 4.717245036914923 3.8999999999999986
    vertex 10.68664863476206 5.68664863476206 3.8999999999999986
  endloop
endfacet
facet normal 0.5 0.8660254037844387 -2.840031653520853e-16
  outer loop
    vertex 11.95 4.717245036914923 3.8999999999999986
    vertex 10.68664863476206 5.68664863476206 5.686648634762058
    vertex 11.950000000000001 4.717245036914924 6.949999999999998
  endloop
endfacet
facet normal 0.44903897237689616 0.8935121718738371 2.412908747185842e-16
  outer loop
    vertex 11.950000000000001 4.717245036914925 13.049999999999999
    vertex 13.421203824874622 4.107852459636683 19.999999999999996
    vertex 13.421203824874622 4.1078524596366846 11.57879617512538
  endloop
endfacet
facet normal 0.2588190451025209 0.9659258262890682 1.6288709297839402e-16
  outer loop
    vertex 13.421203824874622 4.107852459636683 19.999999999999996
    vertex 11.950000000000001 4.717245036914925 13.049999999999999
    vertex 11.95 4.717245036914923 19.999999999999996
  endloop
endfacet
facet normal 0.449038972376896 0.8935121718738372 -2.528988378290341e-16
  outer loop
    vertex 11.950000000000001 4.717245036914924 6.949999999999998
    vertex 13.421203824874622 4.107852459636683 3.8999999999999986
    vertex 11.95 4.717245036914923 3.8999999999999986
  endloop
endfacet
facet normal 0.25881904510252063 0.9659258262890684 -1.5378178210810793e-16
  outer loop
    vertex 13.421203824874622 4.107852459636683 3.8999999999999986
    vertex 11.950000000000001 4.717245036914924 6.949999999999998
    vertex 13.421203824874622 4.107852459636684 8.421203824874622
  endloop
endfacet
facet normal 0.1973015904084867 0.9803428392262993 1.2710089755903817e-16
  outer loop
    vertex 13.421203824874622 4.1078524596366846 11.57879617512538
    vertex 14.999999999999998 3.9 19.999999999999996
    vertex 14.999999999999995 3.900000000000001 9.999999999999998
  endloop
endfacet
facet normal 0.1305261922200519 0.9914448613738105 8.820143209500751e-17
  outer loop
    vertex 14.999999999999998 3.9 19.999999999999996
    vertex 13.421203824874622 4.1078524596366846 11.57879617512538
    vertex 13.421203824874622 4.107852459636683 19.999999999999996
  endloop
endfacet
facet normal 0.25881904510252063 0.9659258262890684 -1.5378178210810793e-16
  outer loop
    vertex 13.421203824874622 4.107852459636683 3.8999999999999986
    vertex 14.999999999999995 3.900000000000001 9.999999999999998
    vertex 14.999999999999998 3.9 3.899999999999994
  endloop
endfacet
facet normal 0.1305261922200517 0.9914448613738105 -9.243282302050775e-17
  outer loop
    vertex 14.999999999999995 3.900000000000001 9.999999999999998
    vertex 13.421203824874622 4.107852459636683 3.8999999999999986
    vertex 13.421203824874622 4.107852459636684 8.421203824874622
  endloop
endfacet
facet normal 1.0924869399504136e-16 0.5309563806349314 -0.847399151441075
  outer loop
    vertex 9.717245036914923 6.950000000000001 15.282754963085077
    vertex 0.0 5.6866486347620615 14.31335136523794
    vertex 0.0 6.950000000000005 15.282754963085077
  endloop
endfacet
facet normal 6.284573916060424e-17 0.7071067811865476 -0.7071067811865476
  outer loop
    vertex 0.0 5.6866486347620615 14.31335136523794
    vertex 9.717245036914923 6.950000000000001 15.282754963085077
    vertex 10.68664863476206 5.686648634762061 14.31335136523794
  endloop
endfacet
facet normal -1.2759767187790325e-16 -0.9659258262890684 -0.25881904510252035
  outer loop
    vertex 35.0 15.892147540363316 11.578796175125373
    vertex 15.999999999999998 16.1 9.999999999999996
    vertex 35.0 16.099999999999998 9.999999999999996
  endloop
endfacet
facet normal -1.419430772978322e-16 -1.0 7.841776708169277e-16
  outer loop
    vertex 15.999999999999998 16.1 9.999999999999996
    vertex 35.0 15.892147540363316 11.578796175125373
    vertex 15.999999999999998 15.968347502412602 11.000000000000021
  endloop
endfacet
facet normal -1.358184081087418e-16 -0.9914448613738105 -0.13052619222005124
  outer loop
    vertex 15.999999999999998 15.968347502412602 11.000000000000021
    vertex 35.0 15.892147540363316 11.578796175125373
    vertex 16.578796175125373 15.892147540363318 11.578796175125373
  endloop
endfacet
facet normal -0.8660254037844383 0.5000000000000007 8.179517549482112e-18
  outer loop
    vertex 20.282754963085075 6.95 19.999999999999996
    vertex 19.313351365237935 5.6866486347620615 14.31335136523794
    vertex 19.313351365237935 5.686648634762061 19.999999999999996
  endloop
endfacet
facet normal -0.6715888024707198 0.7409240719506586 2.3508465474466047e-17
  outer loop
    vertex 19.313351365237935 5.6866486347620615 14.31335136523794
    vertex 20.282754963085075 6.95 19.999999999999996
    vertex 20.282754963085075 6.950000000000001 15.282754963085077
  endloop
endfacet
facet normal -0.8473991514410736 0.5309563806349336 2.1754385523918872e-16
  outer loop
    vertex 20.282754963085075 6.95 4.717245036914922
    vertex 19.313351365237935 5.686648634762061 3.8999999999999986
    vertex 19.313351365237935 5.686648634762061 5.686648634762058
  endloop
endfacet
facet normal -0.7071067811865472 0.7071067811865478 1.3002107199660598e-16
  outer loop
    vertex 19.313351365237935 5.686648634762061 3.8999999999999986
    vertex 20.282754963085075 6.95 4.717245036914922
    vertex 20.282754963085075 6.95 3.8999999999999986
  endloop
endfacet
facet normal -0.9659258262890684 0.25881904510252074 -3.7047604928141233e-16
  outer loop
    vertex 20.892147540363315 8.421203824874622 19.999999999999996
    vertex 20.282754963085075 6.950000000000001 15.282754963085077
    vertex 20.282754963085075 6.95 19.999999999999996
  endloop
endfacet
facet normal -0.8473991514410738 0.5309563806349331 3.968948932184191e-17
  outer loop
    vertex 20.282754963085075 6.950000000000001 15.282754963085077
    vertex 20.892147540363315 8.421203824874622 19.999999999999996
    vertex 20.892147540363318 8.421203824874626 15.892147540363313
  endloop
endfacet
facet normal -0.9607497756675231 0.2774164172409489 6.128266992612236e-15
  outer loop
    vertex 20.892147540363318 8.421203824874622 4.107852459636683
    vertex 20.282754963085075 6.95 3.8999999999999986
    vertex 20.282754963085075 6.95 4.717245036914922
  endloop
endfacet
facet normal -0.8660254037844382 0.500000000000001 3.087373014898681e-16
  outer loop
    vertex 20.282754963085075 6.95 3.8999999999999986
    vertex 20.892147540363318 8.421203824874622 4.107852459636683
    vertex 20.892147540363315 8.421203824874622 3.8999999999999986
  endloop
endfacet
facet normal -3.460252091572079e-17 0.27741641724094845 -0.9607497756675232
  outer loop
    vertex 20.892147540363318 8.421203824874626 15.892147540363313
    vertex 35.0 6.950000000000005 15.282754963085077
    vertex 20.282754963085075 6.950000000000001 15.282754963085077
  endloop
endfacet
facet normal -5.604341433558535e-17 0.4999999999999988 -0.8660254037844394
  outer loop
    vertex 35.0 6.950000000000005 15.282754963085077
    vertex 20.892147540363318 8.421203824874626 15.892147540363313
    vertex 35.0 8.421203824874627 15.892147540363313
  endloop
endfacet
facet normal 2.0271673549064147e-16 0.5309563806349326 0.8473991514410744
  outer loop
    vertex 9.717245036914923 6.949999999999998 4.717245036914922
    vertex 0.0 8.421203824874622 4.107852459636684
    vertex 0.0 6.95 4.717245036914925
  endloop
endfacet
facet normal 1.8696943121624283e-16 0.2588190451025208 0.9659258262890684
  outer loop
    vertex 0.0 8.421203824874622 4.107852459636684
    vertex 9.717245036914923 6.949999999999998 4.717245036914922
    vertex 9.107852459636684 8.421203824874622 4.107852459636683
  endloop
endfacet
facet normal -1.0 -6.861554619648117e-16 -6.698127210070663e-16
  outer loop
    vertex 21.099999999999998 10.0 19.999999999999996
    vertex 20.892147540363318 8.421203824874626 15.892147540363313
    vertex 20.892147540363315 8.421203824874622 19.999999999999996
  endloop
endfacet
facet normal -0.9607497756675231 0.27741641724094895 -3.3172873187476985e-16
  outer loop
    vertex 20.892147540363318 8.421203824874626 15.892147540363313
    vertex 21.099999999999998 10.0 19.999999999999996
    vertex 21.1 10.000000000000002 16.099999999999998
  endloop
endfacet
facet normal -3.673644425892255e-18 6.584796587169926e-17 -1.0
  outer loop
    vertex 21.1 10.000000000000002 16.099999999999998
    vertex 35.0 8.421203824874627 15.892147540363313
    vertex 20.892147540363318 8.421203824874626 15.892147540363313
  endloop
endfacet
facet normal -3.1142517172677675e-17 0.25881904510252035 -0.9659258262890684
  outer loop
    vertex 35.0 8.421203824874627 15.892147540363313
    vertex 21.1 10.000000000000002 16.099999999999998
    vertex 35.0 10.000000000000002 16.099999999999998
  endloop
endfacet
facet normal -0.9659258262890682 -0.25881904510252135 -4.622702650783954e-16
  outer loop
    vertex 20.89214754036331 11.578796175125381 19.999999999999996
    vertex 21.1 10.000000000000002 16.099999999999998
    vertex 21.099999999999998 10.0 19.999999999999996
  endloop
endfacet
facet normal -1.0 -7.325586203226538e-16 -6.698127210070663e-16
  outer loop
    vertex 21.1 10.000000000000002 16.099999999999998
    vertex 20.89214754036331 11.578796175125381 19.999999999999996
    vertex 20.892147540363315 11.57879617512538 15.892147540363313
  endloop
endfacet
facet normal -1.9368011540469387e-17 -0.2588190451025219 -0.9659258262890681
  outer loop
    vertex 35.0 11.57879617512538 15.892147540363313
    vertex 21.1 10.000000000000002 16.099999999999998
    vertex 20.892147540363315 11.57879617512538 15.892147540363313
  endloop
endfacet
facet normal -3.673644425892255e-18 6.584796587169926e-17 -1.0
  outer loop
    vertex 21.1 10.000000000000002 16.099999999999998
    vertex 35.0 11.57879617512538 15.892147540363313
    vertex 35.0 10.000000000000002 16.099999999999998
  endloop
endfacet
facet normal -0.9659258262890682 -0.25881904510252135 -4.622702650783954e-16
  outer loop
    vertex 20.89214754036331 11.578796175125381 19.999999999999996
    vertex 20.282754963085072 13.050000000000004 15.28275496308507
    vertex 20.892147540363315 11.57879617512538 15.892147540363313
  endloop
endfacet
facet normal -0.8473991514410736 -0.5309563806349337 -8.460665572025834e-17
  outer loop
    vertex 20.282754963085072 13.050000000000004 15.28275496308507
    vertex 20.89214754036331 11.578796175125381 19.999999999999996
    vertex 20.282754963085072 13.050000000000004 19.999999999999996
  endloop
endfacet
facet normal -4.695418005934704e-17 -0.500000000000001 -0.866025403784438
  outer loop
    vertex 35.0 13.05 15.28275496308507
    vertex 20.892147540363315 11.57879617512538 15.892147540363313
    vertex 20.282754963085072 13.050000000000004 15.28275496308507
  endloop
endfacet
facet normal -2.2227339185352724e-17 -0.2774164172409503 -0.9607497756675227
  outer loop
    vertex 20.892147540363315 11.57879617512538 15.892147540363313
    vertex 35.0 13.05 15.28275496308507
    vertex 35.0 11.57879617512538 15.892147540363313
  endloop
endfacet
facet normal -0.7071067811865472 -0.7071067811865478 -4.047425823431169e-18
  outer loop
    vertex 19.313351365237935 14.31335136523794 19.999999999999996
    vertex 20.282754963085072 13.050000000000004 15.28275496308507
    vertex 20.282754963085072 13.050000000000004 19.999999999999996
  endloop
endfacet
facet normal -0.8473991514410736 -0.5309563806349337 -8.460665572025834e-17
  outer loop
    vertex 20.282754963085072 13.050000000000004 15.28275496308507
    vertex 19.313351365237935 14.31335136523794 19.999999999999996
    vertex 19.313351365237935 14.31335136523794 14.313351365237935
  endloop
endfacet
facet normal -3.562660633104705e-17 -0.7071067811865477 -0.7071067811865475
  outer loop
    vertex 35.0 14.31335136523794 14.313351365237935
    vertex 20.282754963085072 13.050000000000004 15.28275496308507
    vertex 19.313351365237935 14.31335136523794 14.313351365237935
  endloop
endfacet
facet normal -4.9135106335519956e-17 -0.5309563806349337 -0.8473991514410736
  outer loop
    vertex 20.282754963085072 13.050000000000004 15.28275496308507
    vertex 35.0 14.31335136523794 14.313351365237935
    vertex 35.0 13.05 15.28275496308507
  endloop
endfacet
facet normal -0.6715888024707197 -0.7409240719506587 -2.53529563187091e-18
  outer loop
    vertex 19.313351365237935 14.31335136523794 14.313351365237935
    vertex 18.049999999999994 15.282754963085079 19.999999999999996
    vertex 18.049999999999994 15.282754963085079 13.049999999999994
  endloop
endfacet
facet normal -0.5000000000000001 -0.8660254037844388 -3.883202069367814e-17
  outer loop
    vertex 18.049999999999994 15.282754963085079 19.999999999999996
    vertex 19.313351365237935 14.31335136523794 14.313351365237935
    vertex 19.313351365237935 14.31335136523794 19.999999999999996
  endloop
endfacet
facet normal -6.722180172641235e-17 -0.8660254037844388 -0.5000000000000001
  outer loop
    vertex 35.0 15.282754963085077 13.049999999999995
    vertex 19.313351365237935 14.31335136523794 14.313351365237935
    vertex 18.049999999999994 15.282754963085079 13.049999999999994
  endloop
endfacet
facet normal -2.8363676831143356e-17 -0.7409240719506587 -0.6715888024707197
  outer loop
    vertex 19.313351365237935 14.31335136523794 14.313351365237935
    vertex 35.0 15.282754963085077 13.049999999999995
    vertex 35.0 14.31335136523794 14.313351365237935
  endloop
endfacet
facet normal -0.44903897237689594 -0.8935121718738372 -5.583821850167298e-17
  outer loop
    vertex 18.049999999999994 15.282754963085079 13.049999999999994
    vertex 16.578796175125373 15.892147540363318 19.999999999999996
    vertex 16.578796175125373 15.892147540363318 11.578796175125373
  endloop
endfacet
facet normal -0.2588190451025171 -0.9659258262890693 -4.897976987239087e-17
  outer loop
    vertex 16.578796175125373 15.892147540363318 19.999999999999996
    vertex 18.049999999999994 15.282754963085079 13.049999999999994
    vertex 18.049999999999994 15.282754963085079 19.999999999999996
  endloop
endfacet
facet normal -1.5247413722794658e-16 -0.893512171873837 -0.4490389723768963
  outer loop
    vertex 11.949999999999996 15.282754963085074 13.049999999999994
    vertex 0.0 15.892147540363316 11.578796175125373
    vertex 13.421203824874617 15.892147540363316 11.578796175125373
  endloop
endfacet
facet normal -6.853720096882638e-17 -0.9659258262890684 -0.2588190451025208
  outer loop
    vertex 0.0 15.892147540363316 11.578796175125373
    vertex 11.949999999999996 15.282754963085074 13.049999999999994
    vertex 0.0 15.282754963085077 13.049999999999995
  endloop
endfacet
facet normal -0.44903897237689616 -0.8935121718738371 -5.24699474846955e-16
  outer loop
    vertex 18.049999999999994 15.282754963085077 6.949999999999998
    vertex 16.578796175125373 15.892147540363318 3.8999999999999986
    vertex 18.049999999999994 15.282754963085079 3.8999999999999986
  endloop
endfacet
facet normal -0.2588190451025185 -0.9659258262890691 -3.7692038496369987e-16
  outer loop
    vertex 16.578796175125373 15.892147540363318 3.8999999999999986
    vertex 18.049999999999994 15.282754963085077 6.949999999999998
    vertex 16.578796175125373 15.892147540363316 8.42120382487462
  endloop
endfacet
facet normal -4.895858120193371e-18 -0.8935121718738372 0.44903897237689555
  outer loop
    vertex 11.949999999999996 15.282754963085074 6.949999999999998
    vertex 0.0 15.892147540363313 8.421203824874622
    vertex 0.0 15.282754963085074 6.9499999999999975
  endloop
endfacet
facet normal 3.874070527683967e-18 -0.9659258262890683 0.25881904510252113
  outer loop
    vertex 0.0 15.892147540363313 8.421203824874622
    vertex 11.949999999999996 15.282754963085074 6.949999999999998
    vertex 13.421203824874617 15.892147540363313 8.42120382487462
  endloop
endfacet
facet normal -0.19730159040848175 -0.9803428392263004 -3.51223746172411e-17
  outer loop
    vertex 16.578796175125373 15.892147540363318 11.578796175125373
    vertex 15.999999999999998 15.968347502412602 19.999999999999996
    vertex 15.999999999999998 15.968347502412602 11.000000000000021
  endloop
endfacet
facet normal -0.13052619222004475 -0.9914448613738114 -2.0121867555490073e-17
  outer loop
    vertex 15.999999999999998 15.968347502412602 19.999999999999996
    vertex 16.578796175125373 15.892147540363318 11.578796175125373
    vertex 16.578796175125373 15.892147540363318 19.999999999999996
  endloop
endfacet
facet normal -0.1973015904084835 -0.9803428392263001 -3.0973071573774447e-16
  outer loop
    vertex 16.578796175125373 15.892147540363316 8.42120382487462
    vertex 15.999999999999998 15.968347502412602 3.8999999999999986
    vertex 16.578796175125373 15.892147540363318 3.8999999999999986
  endloop
endfacet
facet normal -0.13052619222004727 -0.9914448613738109 -2.363808738525302e-16
  outer loop
    vertex 15.999999999999998 15.968347502412602 3.8999999999999986
    vertex 16.578796175125373 15.892147540363316 8.42120382487462
    vertex 15.999999999999998 15.968347502412602 8.999999999999982
  endloop
endfacet
facet normal 0.13052619222005055 -0.9914448613738105 2.0922200171373642e-17
  outer loop
    vertex 14.999999999999998 16.099999999999998 19.999999999999996
    vertex 13.421203824874617 15.892147540363316 11.578796175125373
    vertex 15.0 16.099999999999998 9.999999999999996
  endloop
endfacet
facet normal 0.19730159040848616 -0.9803428392262995 1.6251621801461992e-17
  outer loop
    vertex 13.421203824874617 15.892147540363316 11.578796175125373
    vertex 14.999999999999998 16.099999999999998 19.999999999999996
    vertex 13.421203824874617 15.892147540363316 19.999999999999996
  endloop
endfacet
facet normal 0.13052619222005152 -0.9914448613738105 -2.554064846619272e-16
  outer loop
    vertex 15.0 16.099999999999998 9.999999999999996
    vertex 13.421203824874617 15.892147540363316 3.8999999999999986
    vertex 14.999999999999998 16.099999999999998 3.8999999999999986
  endloop
endfacet
facet normal 0.25881904510252113 -0.9659258262890682 -3.3038040546493133e-16
  outer loop
    vertex 13.421203824874617 15.892147540363316 3.8999999999999986
    vertex 15.0 16.099999999999998 9.999999999999996
    vertex 13.421203824874617 15.892147540363313 8.42120382487462
  endloop
endfacet
facet normal 0.25881904510252096 -0.9659258262890682 1.1824549512301352e-17
  outer loop
    vertex 13.421203824874617 15.892147540363316 19.999999999999996
    vertex 11.949999999999996 15.282754963085074 13.049999999999994
    vertex 13.421203824874617 15.892147540363316 11.578796175125373
  endloop
endfacet
facet normal 0.4490389723768971 -0.8935121718738367 -4.225687293629554e-17
  outer loop
    vertex 11.949999999999996 15.282754963085074 13.049999999999994
    vertex 13.421203824874617 15.892147540363316 19.999999999999996
    vertex 11.949999999999996 15.282754963085074 19.999999999999996
  endloop
endfacet
facet normal 0.19730159040848672 -0.9803428392262994 -2.948136994956301e-16
  outer loop
    vertex 13.421203824874617 15.892147540363313 8.42120382487462
    vertex 11.949999999999996 15.282754963085074 3.8999999999999986
    vertex 13.421203824874617 15.892147540363316 3.8999999999999986
  endloop
endfacet
facet normal 0.5000000000000003 -0.8660254037844386 -3.181208631651862e-17
  outer loop
    vertex 11.949999999999996 15.282754963085074 3.8999999999999986
    vertex 13.421203824874617 15.892147540363313 8.42120382487462
    vertex 11.949999999999996 15.282754963085074 6.949999999999998
  endloop
endfacet
facet normal 0.5000000000000004 -0.8660254037844384 -7.763724470312723e-17
  outer loop
    vertex 11.949999999999996 15.282754963085074 19.999999999999996
    vertex 10.686648634762056 14.31335136523794 14.313351365237935
    vertex 11.949999999999996 15.282754963085074 13.049999999999994
  endloop
endfacet
facet normal 0.6715888024707193 -0.7409240719506589 -1.3913240924462046e-16
  outer loop
    vertex 10.686648634762056 14.31335136523794 14.313351365237935
    vertex 11.949999999999996 15.282754963085074 19.999999999999996
    vertex 10.686648634762056 14.313351365237937 19.999999999999996
  endloop
endfacet
facet normal 0.6715888024707193 -0.7409240719506589 -1.3913240924462046e-16
  outer loop
    vertex 10.686648634762056 14.31335136523794 14.313351365237935
    vertex 9.71724503691492 13.049999999999999 19.999999999999996
    vertex 9.717245036914921 13.049999999999999 15.28275496308507
  endloop
endfacet
facet normal 0.8660254037844388 -0.49999999999999983 -2.9981738694343136e-17
  outer loop
    vertex 9.71724503691492 13.049999999999999 19.999999999999996
    vertex 10.686648634762056 14.31335136523794 14.313351365237935
    vertex 10.686648634762056 14.313351365237937 19.999999999999996
  endloop
endfacet
facet normal 0.960749775667523 -0.277416417240949 -7.617789340635288e-18
  outer loop
    vertex 9.10785245963668 11.578796175125378 15.892147540363313
    vertex 9.71724503691492 13.049999999999999 19.999999999999996
    vertex 9.10785245963668 11.578796175125374 19.999999999999996
  endloop
endfacet
facet normal 0.8660254037844388 -0.49999999999999983 -2.9981738694343136e-17
  outer loop
    vertex 9.71724503691492 13.049999999999999 19.999999999999996
    vertex 9.10785245963668 11.578796175125378 15.892147540363313
    vertex 9.717245036914921 13.049999999999999 15.28275496308507
  endloop
endfacet
facet normal 1.0 6.337866715151049e-16 8.899609579814185e-17
  outer loop
    vertex 8.899999999999999 10.0 16.099999999999998
    vertex 9.10785245963668 11.578796175125374 19.999999999999996
    vertex 8.899999999999999 9.999999999999998 19.999999999999996
  endloop
endfacet
facet normal 0.9659258262890685 -0.25881904510252046 -1.5595416609362463e-17
  outer loop
    vertex 9.10785245963668 11.578796175125374 19.999999999999996
    vertex 8.899999999999999 10.0 16.099999999999998
    vertex 9.10785245963668 11.578796175125378 15.892147540363313
  endloop
endfacet
facet normal 0.9607497756675228 0.2774164172409493 3.2593469787117143e-16
  outer loop
    vertex 9.107852459636684 8.421203824874624 15.892147540363313
    vertex 8.899999999999999 9.999999999999998 19.999999999999996
    vertex 9.107852459636682 8.421203824874622 19.999999999999996
  endloop
endfacet
facet normal 1.0 6.950665718604586e-16 8.899609579814194e-17
  outer loop
    vertex 8.899999999999999 9.999999999999998 19.999999999999996
    vertex 9.107852459636684 8.421203824874624 15.892147540363313
    vertex 8.899999999999999 10.0 16.099999999999998
  endloop
endfacet
facet normal -1.0738685735010253e-16 0.2588190451025208 0.9659258262890684
  outer loop
    vertex 35.0 8.421203824874622 4.107852459636684
    vertex 21.099999999999998 10.0 3.8999999999999986
    vertex 20.892147540363318 8.421203824874622 4.107852459636683
  endloop
endfacet
facet normal -9.525557157075812e-17 5.761697013773689e-17 1.0
  outer loop
    vertex 21.099999999999998 10.0 3.8999999999999986
    vertex 35.0 8.421203824874622 4.107852459636684
    vertex 35.0 10.0 3.9
  endloop
endfacet
facet normal 0.8473991514410744 0.5309563806349324 2.5572535431590166e-16
  outer loop
    vertex 9.717245036914923 6.950000000000001 15.282754963085077
    vertex 9.107852459636682 8.421203824874622 19.999999999999996
    vertex 9.717245036914923 6.949999999999998 19.999999999999996
  endloop
endfacet
facet normal 0.9659258262890682 0.25881904510252113 3.1601724663903845e-16
  outer loop
    vertex 9.107852459636682 8.421203824874622 19.999999999999996
    vertex 9.717245036914923 6.950000000000001 15.282754963085077
    vertex 9.107852459636684 8.421203824874624 15.892147540363313
  endloop
endfacet
facet normal 6.676247027876027e-17 -0.27741641724094884 0.9607497756675231
  outer loop
    vertex 9.10785245963668 11.578796175125374 4.107852459636683
    vertex 0.0 13.049999999999999 4.717245036914923
    vertex 0.0 11.578796175125376 4.107852459636683
  endloop
endfacet
facet normal 5.063173632321186e-17 -0.49999999999999967 0.8660254037844389
  outer loop
    vertex 0.0 13.049999999999999 4.717245036914923
    vertex 9.10785245963668 11.578796175125374 4.107852459636683
    vertex 9.717245036914921 13.049999999999999 4.717245036914922
  endloop
endfacet
facet normal -1.0652836104299003e-16 -0.27741641724094895 0.9607497756675231
  outer loop
    vertex 20.892147540363315 11.57879617512538 4.107852459636683
    vertex 35.0 13.049999999999999 4.717245036914923
    vertex 20.282754963085072 13.05 4.717245036914922
  endloop
endfacet
facet normal -1.057508918733399e-16 -0.4999999999999999 0.8660254037844388
  outer loop
    vertex 35.0 13.049999999999999 4.717245036914923
    vertex 20.892147540363315 11.57879617512538 4.107852459636683
    vertex 35.0 11.578796175125376 4.107852459636683
  endloop
endfacet
facet normal -7.546098320767316e-17 -0.7071067811865476 0.7071067811865476
  outer loop
    vertex 35.0 14.31335136523794 5.686648634762059
    vertex 18.049999999999994 15.282754963085077 6.949999999999998
    vertex 19.313351365237935 14.31335136523794 5.686648634762058
  endloop
endfacet
facet normal -1.2261871127243298e-16 -0.8935121718738372 0.44903897237689566
  outer loop
    vertex 18.049999999999994 15.282754963085077 6.949999999999998
    vertex 35.0 14.31335136523794 5.686648634762059
    vertex 35.0 15.282754963085074 6.9499999999999975
  endloop
endfacet
facet normal -4.895858120193371e-18 -0.8935121718738372 0.44903897237689555
  outer loop
    vertex 11.949999999999996 15.282754963085074 6.949999999999998
    vertex 0.0 14.31335136523794 5.686648634762059
    vertex 10.686648634762056 14.31335136523794 5.686648634762058
  endloop
endfacet
facet normal 1.8410155199905402e-17 -0.7071067811865478 0.7071067811865474
  outer loop
    vertex 0.0 14.31335136523794 5.686648634762059
    vertex 11.949999999999996 15.282754963085074 6.949999999999998
    vertex 0.0 15.282754963085074 6.9499999999999975
  endloop
endfacet
facet normal -1.0198141918069424e-16 -0.5309563806349323 0.8473991514410744
  outer loop
    vertex 20.282754963085072 13.05 4.717245036914922
    vertex 35.0 14.31335136523794 5.686648634762059
    vertex 19.313351365237935 14.31335136523794 5.686648634762058
  endloop
endfacet
facet normal -7.546098320767316e-17 -0.7071067811865476 0.7071067811865476
  outer loop
    vertex 35.0 14.31335136523794 5.686648634762059
    vertex 20.282754963085072 13.05 4.717245036914922
    vertex 35.0 13.049999999999999 4.717245036914923
  endloop
endfacet
facet normal 5.2281642535967154e-17 -0.5309563806349321 0.8473991514410746
  outer loop
    vertex 9.717245036914921 13.049999999999999 4.717245036914922
    vertex 0.0 14.31335136523794 5.686648634762059
    vertex 0.0 13.049999999999999 4.717245036914923
  endloop
endfacet
facet normal 1.8410155199905402e-17 -0.7071067811865478 0.7071067811865474
  outer loop
    vertex 0.0 14.31335136523794 5.686648634762059
    vertex 9.717245036914921 13.049999999999999 4.717245036914922
    vertex 10.686648634762056 14.31335136523794 5.686648634762058
  endloop
endfacet
facet normal 1.3135248087549497e-16 1.4815792321132325e-16 1.0
  outer loop
    vertex 8.899999999999999 9.999999999999998 3.8999999999999986
    vertex 0.0 11.578796175125376 4.107852459636683
    vertex 0.0 10.0 3.9
  endloop
endfacet
facet normal 7.06032740503e-17 -0.2588190451025206 0.9659258262890684
  outer loop
    vertex 0.0 11.578796175125376 4.107852459636683
    vertex 8.899999999999999 9.999999999999998 3.8999999999999986
    vertex 9.10785245963668 11.578796175125374 4.107852459636683
  endloop
endfacet
facet normal -9.525557157075812e-17 5.761697013773689e-17 1.0
  outer loop
    vertex 21.099999999999998 10.0 3.8999999999999986
    vertex 35.0 11.578796175125376 4.107852459636683
    vertex 20.892147540363315 11.57879617512538 4.107852459636683
  endloop
endfacet
facet normal -1.0436747513788207e-16 -0.25881904510252063 0.9659258262890684
  outer loop
    vertex 35.0 11.578796175125376 4.107852459636683
    vertex 21.099999999999998 10.0 3.8999999999999986
    vertex 35.0 10.0 3.9
  endloop
endfacet
endsolid Untitled-55b82c3e
